<svg width="120" height="55" viewBox="0 0 120 55" fill="none" xmlns="http://www.w3.org/2000/svg">
<g id="Group 20">
<g id="Group 24">
<path id="polygon161" d="M107.98 29.9682L82.5323 25.9805L85.9058 41.1446L107.98 29.9682Z" fill="#D12053"/>
<path id="polygon163" d="M107.98 29.9684L88.8043 3.32568L82.5371 25.9854L107.98 29.9684Z" fill="#E2136E"/>
<path id="polygon165" d="M81.9421 25.6782L61.8496 0L88.1613 3.14319L81.9421 25.6782Z" fill="#D12053"/>
<path id="polygon167" d="M72.7908 14.9482L61.6337 4.43408H64.5705L72.7908 14.9482Z" fill="#9E1638"/>
<path id="polygon169" d="M113.408 17.0166L108.686 29.8245L101.032 19.2384L113.408 17.0166Z" fill="#D12053"/>
<path id="polygon171" d="M88.8762 40.377L107.404 32.9341L108.182 30.5684L88.8762 40.377Z" fill="#E2136E"/>
<path id="polygon173" d="M74.0576 54.423L81.9948 26.5806L86.021 44.6959L74.0576 54.423Z" fill="#9E1638"/>
<path id="polygon175" d="M114.147 17.1172L112.198 22.4054L119.224 22.2903L114.147 17.1172Z" fill="#E2136E"/>
<path id="path177" d="M0.655823 19.2383C0.996535 19.2671 1.34205 19.3295 1.70675 19.3295C2.07146 19.3295 2.36898 19.2671 2.75768 19.2383V30.501C3.86619 28.6151 5.26264 27.3722 7.31651 27.3722C11.0307 27.3722 12.6239 31.048 12.6239 34.4264C12.6239 38.4717 10.4645 42.3443 6.67827 42.3443C5.92021 42.361 5.17206 42.1699 4.51482 41.7918C3.85758 41.4137 3.31631 40.863 2.94963 40.1993C2.31619 40.7559 1.75474 41.423 1.15489 42.0276H0.675018L0.655823 19.2383ZM2.70969 35.8036C2.70969 39.086 4.10133 41.375 6.39034 41.375C9.36078 41.375 10.3157 37.3824 10.3157 34.5511C10.3157 31.264 9.23121 28.6775 6.65908 28.6487C3.65505 28.6247 2.70969 32.1805 2.70969 35.8084" fill="#E2136E"/>
<path id="path179" d="M22.3126 26.5224L20.0764 29.4017C22.1783 32.4729 24.3569 35.4817 26.4683 38.5913L28.599 41.9504V42.1184C28.0759 42.0848 27.6009 42.0176 27.1594 42.0176C26.7179 42.0176 26.1612 42.0848 25.691 42.1184C25.1103 41.0434 24.5344 40.0501 23.877 39.076L18.1185 30.5582C17.9889 30.4238 17.677 30.3182 17.677 30.4574V42.1184C17.2547 42.0848 16.8852 42.0176 16.5205 42.0176C16.1558 42.0176 15.7335 42.0848 15.364 42.1184V19.2379C15.7335 19.2667 16.1318 19.3386 16.5205 19.3386C16.9092 19.3386 17.2547 19.2667 17.677 19.2379V29.5648C17.677 29.7664 18.0705 29.632 18.3296 29.3633C18.8295 28.845 19.2974 28.297 19.7309 27.7221L26.2044 19.2283C26.5451 19.2571 26.8858 19.329 27.2553 19.329C27.6249 19.329 27.908 19.2571 28.2823 19.2283L22.3126 26.5224Z" fill="#231F20"/>
<path id="path181" d="M39.7273 39.5415C39.7273 40.7316 39.6506 41.3362 41.2006 40.9427V41.6098C40.9473 41.7366 40.6821 41.8379 40.4088 41.9121C39.0411 42.1856 37.9086 41.9409 37.6975 40.1509L37.4623 40.4149C37.0051 41.0139 36.4154 41.499 35.7394 41.832C35.0633 42.1651 34.3193 42.337 33.5657 42.3344C31.7038 42.3344 30.0722 40.8659 30.0722 38.6153C30.0722 35.1458 32.4716 34.6899 34.9334 34.2341C37.016 33.8406 37.7263 33.6582 37.7263 32.1946C37.7263 29.9392 36.6225 28.6339 34.6503 28.6339C33.9767 28.6207 33.3153 28.8148 32.7557 29.1899C32.1961 29.5649 31.7652 30.1029 31.5215 30.731H31.2335V29.0418C32.4177 28.0115 33.9212 27.4216 35.49 27.3718C38.2493 27.3718 39.7513 29.0418 39.7513 32.4825L39.7273 39.5415ZM37.6255 34.5172L36.6993 34.7283C34.9094 35.1218 32.2269 35.4242 32.2269 38.2026C32.2269 40.1221 33.1866 41.0819 34.799 41.0819C35.6331 40.9792 36.3958 40.56 36.9297 39.911C37.1216 39.6902 37.6495 39.172 37.6495 38.9512L37.6255 34.5172Z" fill="#231F20"/>
<path id="path183" d="M44.4157 39.1386C45.0396 40.3335 46.2009 41.4036 47.4389 41.4036C48.1454 41.3676 48.81 41.0579 49.292 40.5401C49.774 40.0223 50.0353 39.3372 50.0207 38.63C50.0207 34.5222 43.8063 37.1903 43.8063 31.8733C43.8063 28.9557 45.7258 27.3769 48.0916 27.3769C49.1377 27.3536 50.169 27.6264 51.0668 28.1639C50.8076 28.8679 50.5992 29.5895 50.443 30.3233H50.203C49.8575 29.3204 48.9409 28.3126 47.9668 28.3126C46.6519 28.3126 45.5674 29.2004 45.5674 30.8464C45.5674 34.7382 51.7818 32.6651 51.7818 37.5358C51.7818 40.7942 49.2577 42.3346 46.9351 42.3346C45.7719 42.3337 44.6331 42.0007 43.6527 41.3749C43.8883 40.6448 44.0727 39.8992 44.2046 39.1434L44.4157 39.1386Z" fill="#231F20"/>
<path id="path185" d="M55.3233 19.2383C55.6736 19.2671 56.0143 19.3295 56.379 19.3295C56.7437 19.3295 57.0413 19.2671 57.4348 19.2383V30.3186C58.3561 28.4615 59.8006 27.3722 61.6721 27.3722C64.7241 27.3722 65.9094 29.4644 65.9094 33.3035V42.1188C65.5111 42.0852 65.204 42.0276 64.8536 42.0276C64.5033 42.0276 64.1434 42.09 63.7979 42.1188V33.9993C63.7979 30.6401 63.1213 28.9462 60.8803 28.9462C58.5097 28.9462 57.4348 30.6545 57.4348 33.8169V42.1188C57.0413 42.0852 56.7293 42.0276 56.379 42.0276C56.0287 42.0276 55.6784 42.09 55.3233 42.1188V19.2383Z" fill="#231F20"/>
</g>
</g>
</svg>
