<svg width="120" height="40" viewBox="0 0 120 40" fill="none" xmlns="http://www.w3.org/2000/svg">
<g id="logo 1" clip-path="url(#clip0_69_635)">
<path id="Vector" d="M25.8275 23.8019H0.506531V28.8661H30.8917V12.6607H44.0587V28.8661H68.3668V23.8019H49.1228V7.59644H25.8275V23.8019Z" fill="#FD4141"/>
<path id="Vector_2" fill-rule="evenodd" clip-rule="evenodd" d="M25.3209 7.08984H49.629V23.2953H68.873V29.3723H43.5521V13.1669H31.3979V29.3723H-6.10352e-05V23.2953H25.3209V7.08984ZM26.3338 8.10266V24.3081H1.01278V28.3595H30.3851V12.1541H44.5649V28.3595H67.8601V24.3081H48.6162V8.10266H26.3338Z" fill="#FD4141"/>
<path id="Vector_3" d="M52.1614 23.8017V0.506348H57.2257V7.59622H68.3669V12.6604H57.2257V23.8017H52.1614Z" fill="#192830"/>
<path id="Vector_4" fill-rule="evenodd" clip-rule="evenodd" d="M51.6548 0H57.7319V7.08988H68.8731V13.1669H57.7319V24.3082H51.6548V0ZM52.6677 1.01284V23.2953H56.7191V12.154H67.8603V8.10272H56.7191V1.01284H52.6677Z" fill="#192830"/>
<path id="Vector_5" d="M76.4702 7.59644H71.4056V28.8661H76.4702V7.59644Z" fill="#192830"/>
<path id="Vector_6" fill-rule="evenodd" clip-rule="evenodd" d="M70.8983 7.08984H76.9751V29.3723H70.8983V7.08984ZM71.9111 8.10266V28.3595H75.9622V8.10266H71.9111Z" fill="#192830"/>
<path id="Vector_7" d="M76.4702 0.506348H71.4056V5.57054H76.4702V0.506348Z" fill="#192830"/>
<path id="Vector_8" fill-rule="evenodd" clip-rule="evenodd" d="M70.8983 0H76.9751V6.07703H70.8983V0ZM71.9111 1.01284V5.0642H75.9622V1.01284H71.9111Z" fill="#192830"/>
<path id="Vector_9" d="M79.5072 28.8659V0.506348H84.5714V7.59622H95.7125V12.6604H84.5714V23.8017H95.7125V28.8659H79.5072Z" fill="#192830"/>
<path id="Vector_10" fill-rule="evenodd" clip-rule="evenodd" d="M79.0015 0H85.0785V7.08987H96.2196V13.1669H85.0785V23.2953H96.2196V29.3724H79.0015V0ZM80.0144 1.01284V28.3595H95.2068V24.3082H84.0657V12.154H95.2068V8.10272H84.0657V1.01284H80.0144Z" fill="#192830"/>
<path id="Vector_11" d="M117.995 7.59644V28.3597L113.438 34.1835L110.37 38.1038C109.559 39.141 108.045 39.2915 107.045 38.4342C106.094 37.6188 105.965 36.1937 106.755 35.2212L111.919 28.8661H98.7517V7.59644H103.816V23.8019H112.931V7.59644H117.995Z" fill="#192830"/>
<path id="Vector_12" fill-rule="evenodd" clip-rule="evenodd" d="M98.2453 7.08984H104.322V23.2953H112.425V7.08984H118.502V28.5341L110.769 38.4156C109.779 39.6802 107.934 39.8636 106.715 38.8185C105.555 37.8244 105.399 36.0872 106.362 34.9017L110.855 29.3723H98.2453V7.08984ZM99.2581 8.10266V28.3595H112.983L107.148 35.5403C106.531 36.2998 106.632 37.4127 107.374 38.0495C108.155 38.719 109.337 38.6015 109.971 37.7914L117.489 28.1848V8.10266H113.438V24.3081H103.309V8.10266H99.2581Z" fill="#192830"/>
<path id="Vector_13" fill-rule="evenodd" clip-rule="evenodd" d="M22.789 20.7634H5.57073V23.8019H0.506531V7.59644H22.789V20.7634ZM17.7248 12.6607H5.57073V15.6992H17.7248V12.6607Z" fill="#192830"/>
<path id="Vector_14" fill-rule="evenodd" clip-rule="evenodd" d="M-6.10352e-05 7.08984H23.2952V21.2696H6.07697V24.3081H-6.10352e-05V7.08984ZM1.01278 8.10266V23.2953H5.06414V20.2568H22.2824V8.10266H1.01278ZM5.06414 12.1541H18.2311V16.2054H5.06414V12.1541ZM6.07697 13.1669V15.1925H17.2182V13.1669H6.07697Z" fill="#192830"/>
</g>
<defs>
<clipPath id="clip0_69_635">
<rect width="119.245" height="40" fill="white"/>
</clipPath>
</defs>
</svg>
