<svg width="32" height="32" viewBox="0 0 32 32" fill="none" xmlns="http://www.w3.org/2000/svg">
<g id="Frame">
<g id="row_1">
<g id="quality">
<path id="Vector" d="M22.7 11.15L25.35 4.65C25.4 4.5 25.4 4.3 25.3 4.15L25.1 3.9H24.85L18.1 5.7L12.95 1.15L12.75 1H12.55C12.25 1 12 1.25 12 1.5L11.6 8.5L5.75 12.15C5.55 12.25 5.5 12.45 5.5 12.65L5.55 13L12.25 15.7L15.5 25.6C15.55 25.85 15.8 26 16 26C16.2 26 16.45 25.85 16.5 25.65L19.65 17.15L25.9 17.9H25.95C26.15 17.9 26.35 17.8 26.4 17.6L26.55 17.3L22.7 11.15Z" fill="#FFD54F"/>
<g id="Group">
<path id="Vector_2" d="M19 6.49999L17.85 6.84999L16.5 5.64999L20.75 16.3L23 16.55L19 6.49999Z" fill="#FFECB3"/>
<path id="Vector_3" d="M14.15 3.55L12.95 2.5L12.6 9.1L12.15 9.35L17 21.5L19 16.05L19.15 16.1L14.15 3.55Z" fill="#FFE082"/>
</g>
<path id="Vector_4" d="M16.1 24.85L15.25 22.3L15.8 22.1L16.15 23.1L16.8 21.3L17.35 21.5L16.1 24.85ZM17.7 20.45L17.15 20.25L18.9 15.55L21.25 15.85L21.2 16.4L19.3 16.15L17.7 20.45ZM24.85 16.4L24.25 15.4L24.75 15.1L25.35 16.1L24.85 16.4ZM13.1 15.7L12.85 15L6.34998 12.4L7.09998 11.95L7.24998 12.15L13.35 14.6L13.65 15.55L13.1 15.7ZM8.39998 11.8L8.09998 11.3L12 8.85L12.3 9.35L8.39998 11.8ZM22.85 9.35L22.3 9.15L24.05 4.9L24.6 5.1L22.85 9.35ZM17.95 6.8L16.9 5.85L17.3 5.4L18.15 6.15L23.45 4.75L23.6 5.3L17.95 6.8ZM13.4 2.8L13.05 2.5H12.75L12.8 1.5L13.8 2.4L13.4 2.8Z" fill="#FFCA28"/>
<g id="Group_2">
<path id="Vector_5" d="M21.5 25H10.5V27.5H21.5V25Z" fill="#FF7043"/>
<path id="Vector_6" d="M23.5 26.5H8.5V30.5H23.5V26.5Z" fill="#B71C1C"/>
<path id="Vector_7" d="M24 30H8V31H24V30Z" fill="#3E2723"/>
<path id="Vector_8" d="M19.5 26.5H12.5V29.5H19.5V26.5Z" fill="#FFB300"/>
<path id="Vector_9" d="M19 27H13V29H19V27Z" fill="#FBE9E7"/>
</g>
<g id="Group_3">
<path id="Vector_10" d="M8.39993 24.5L6.29993 21.65C5.79993 20.1 5.79993 18.5 6.29993 17C6.34993 16.85 6.49993 16.7 6.69993 16.65C6.89993 16.6 7.04993 16.7 7.19993 16.8C8.89993 18.95 9.39993 21.9 8.39993 24.5Z" fill="#FFCA28"/>
<path id="Vector_11" d="M5.69998 20.55C5.49998 20.1 5.34998 19.75 5.24998 19.4C6.09998 16.8 5.54998 13.95 3.79998 11.9C3.69998 11.8 3.54998 11.75 3.44998 11.75C3.19998 11.75 3.04998 11.9 2.94998 12.1C2.14998 14.75 2.89998 17.65 4.79998 19.65C4.89998 20 5.04998 20.35 5.24998 20.8L5.69998 20.55Z" fill="#FFCA28"/>
<path id="Vector_12" d="M7.25 22C6.85 22 6.5 21.55 6.5 21C6.5 20.45 6.85 20 7.25 20C7.65 20 8 20.45 8 21C8 21.55 7.65 22 7.25 22Z" fill="#FFB300"/>
<path id="Vector_13" d="M3.89995 19.7C3.64995 19.7 3.34995 19.55 3.09995 19.35C2.89995 19.15 2.79995 18.95 2.74995 18.75C2.69995 18.5 2.74995 18.25 2.89995 18.1C3.19995 17.8 3.74995 17.9 4.14995 18.3C4.34995 18.5 4.44995 18.7 4.49995 18.9C4.54995 19.15 4.49995 19.4 4.34995 19.55C4.24995 19.65 4.04995 19.7 3.89995 19.7Z" fill="#FFB300"/>
<path id="Vector_14" d="M9.49998 25.2C9.14998 24.95 8.74998 24.65 8.34998 24.25C7.49998 21.65 5.34998 19.65 2.64998 19.1C2.44998 19.05 2.24998 19.15 2.14998 19.3C2.04998 19.45 2.04998 19.6 2.09998 19.75C3.04998 22.3 5.34998 24.2 8.04998 24.65C8.44998 25 8.84998 25.35 9.19998 25.6L9.49998 25.2Z" fill="#FFB300"/>
</g>
<g id="Group_4">
<path id="Vector_15" d="M23.6 24.5L25.7 21.65C26.2 20.1 26.2 18.5 25.7 17C25.65 16.85 25.5 16.7 25.3 16.65C25.1 16.6 24.95 16.7 24.8 16.8C23.1 18.95 22.6 21.9 23.6 24.5Z" fill="#FFE082"/>
<path id="Vector_16" d="M26.3 20.55C26.5 20.1 26.65 19.75 26.75 19.4C25.9 16.8 26.4501 13.95 28.2001 11.9C28.3001 11.8 28.45 11.75 28.55 11.75C28.8 11.75 28.95 11.9 29.05 12.1C29.85 14.75 29.1001 17.65 27.2001 19.65C27.1001 20 26.95 20.35 26.75 20.8L26.3 20.55Z" fill="#FFD54F"/>
<path id="Vector_17" d="M24 21C24 20.45 24.35 20 24.75 20C25.15 20 25.5 20.45 25.5 21C25.5 21.55 25.15 22 24.75 22C24.35 22 24 21.55 24 21Z" fill="#FFB300"/>
<path id="Vector_18" d="M27.65 19.5C27.5 19.35 27.45 19.1 27.5 18.85C27.55 18.65 27.65 18.4 27.85 18.25C28.25 17.85 28.8 17.8 29.1 18.05C29.25 18.2 29.3 18.45 29.25 18.7C29.2 18.9 29.1 19.15 28.9 19.3C28.65 19.55 28.4 19.65 28.1 19.65C27.95 19.7 27.75 19.65 27.65 19.5Z" fill="#FFB300"/>
<path id="Vector_19" d="M22.5 25.2C22.85 24.95 23.25 24.65 23.65 24.25C24.5 21.65 26.65 19.65 29.35 19.1C29.55 19.05 29.75 19.15 29.85 19.3C29.95 19.45 29.95 19.6 29.9 19.75C28.95 22.3 26.65 24.2 23.95 24.65C23.55 25 23.15 25.35 22.8 25.6L22.5 25.2Z" fill="#FFCA28"/>
</g>
</g>
</g>
</g>
</svg>
