<svg width="122" height="40" viewBox="0 0 122 40" fill="none" xmlns="http://www.w3.org/2000/svg">
<g id="Group 20">
<g id="Group 28">
<path id="Vector" d="M51.8146 21.0499C51.8146 26.8048 47.3287 31.0454 41.8234 31.0454C36.3182 31.0454 31.8323 26.8048 31.8323 21.0499C31.8323 15.2545 36.3182 11.0544 41.8234 11.0544C47.3287 11.0544 51.8146 15.2545 51.8146 21.0499ZM47.4409 21.0499C47.4409 17.4537 44.841 14.9932 41.8234 14.9932C38.8059 14.9932 36.206 17.4537 36.206 21.0499C36.206 24.6101 38.8059 27.1067 41.8234 27.1067C44.841 27.1067 47.4409 24.6056 47.4409 21.0499Z" fill="#EA4335"/>
<path id="Vector_2" d="M73.3684 21.0499C73.3684 26.8048 68.8825 31.0454 63.3773 31.0454C57.8721 31.0454 53.3862 26.8048 53.3862 21.0499C53.3862 15.259 57.8721 11.0544 63.3773 11.0544C68.8825 11.0544 73.3684 15.2545 73.3684 21.0499ZM68.9948 21.0499C68.9948 17.4537 66.3948 14.9932 63.3773 14.9932C60.3598 14.9932 57.7598 17.4537 57.7598 21.0499C57.7598 24.6101 60.3598 27.1067 63.3773 27.1067C66.3948 27.1067 68.9948 24.6056 68.9948 21.0499Z" fill="#FBBC05"/>
<path id="Vector_3" d="M94.0242 11.6583V29.6034C94.0242 36.9851 89.6865 39.9999 84.5585 39.9999C79.7313 39.9999 76.826 36.7597 75.7304 34.1099L79.5382 32.5191C80.2163 34.1459 81.8777 36.0657 84.554 36.0657C87.8365 36.0657 89.8706 34.0333 89.8706 30.2072V28.7696H89.7179C88.739 29.9819 86.8531 31.0409 84.4732 31.0409C79.4933 31.0409 74.9311 26.6876 74.9311 21.086C74.9311 15.4438 79.4933 11.0544 84.4732 11.0544C86.8486 11.0544 88.7345 12.1135 89.7179 13.2897H89.8706V11.6628H94.0242V11.6583ZM90.1804 21.086C90.1804 17.5664 87.841 14.9932 84.8638 14.9932C81.8463 14.9932 79.3182 17.5664 79.3182 21.086C79.3182 24.5696 81.8463 27.1067 84.8638 27.1067C87.841 27.1067 90.1804 24.5696 90.1804 21.086Z" fill="#4285F4"/>
<path id="Vector_4" d="M100.872 1.14014V30.4326H96.6061V1.14014H100.872Z" fill="#34A853"/>
<path id="Vector_5" d="M117.495 24.3398L120.89 26.6111C119.795 28.238 117.154 31.041 112.592 31.041C106.934 31.041 102.709 26.6517 102.709 21.0456C102.709 15.1014 106.97 11.05 112.102 11.05C117.271 11.05 119.799 15.178 120.625 17.4088L121.079 18.5444L107.765 24.0785C108.784 26.0839 110.369 27.1068 112.592 27.1068C114.819 27.1068 116.364 26.0072 117.495 24.3398ZM107.046 20.7436L115.946 17.0347C115.457 15.7864 113.984 14.9167 112.251 14.9167C110.028 14.9167 106.934 16.886 107.046 20.7436Z" fill="#EA4335"/>
<path id="Vector_6" d="M15.6849 18.4498V14.2091H29.9239C30.0631 14.9482 30.135 15.8225 30.135 16.7688C30.135 19.9504 29.2683 23.8847 26.4753 26.6877C23.7586 29.5268 20.2876 31.041 15.6894 31.041C7.16666 31.041 0 24.0739 0 15.5205C0 6.96711 7.16666 0 15.6894 0C20.4043 0 23.7631 1.85669 26.2867 4.2767L23.3051 7.26905C21.4955 5.56557 19.0437 4.24065 15.6849 4.24065C9.46124 4.24065 4.59366 9.27446 4.59366 15.5205C4.59366 21.7666 9.46124 26.8004 15.6849 26.8004C19.7218 26.8004 22.0209 25.1735 23.4937 23.6954C24.6881 22.4966 25.474 20.7842 25.7838 18.4453L15.6849 18.4498Z" fill="#4285F4"/>
</g>
</g>
</svg>
