<svg width="144" height="29" viewBox="0 0 144 29" fill="none" xmlns="http://www.w3.org/2000/svg">
<g id="Group 19">
<g id="Group 27">
<path id="Vector" d="M4.69613 19.0661C4.69613 20.7281 5.06051 22.0042 5.53678 22.7761C6.16122 23.7873 7.09258 24.2156 8.04209 24.2156C9.26677 24.2156 10.3871 23.9114 12.5462 20.9219C14.2759 18.5258 16.314 15.1624 17.6853 13.0539L20.0077 9.4816C21.621 7.0007 23.4882 4.24281 25.6292 2.37343C27.377 0.847653 29.2624 0 31.1599 0C34.3456 0 37.3801 1.84819 39.7024 5.31448C42.244 9.11075 43.4778 13.8924 43.4778 18.827C43.4778 21.7605 42.9002 23.9159 41.9174 25.6188C40.9679 27.2657 39.1173 28.911 36.0042 28.911V24.2156C38.6698 24.2156 39.335 21.7635 39.335 18.9571C39.335 14.958 38.4037 10.52 36.3519 7.34885C34.8959 5.09954 33.009 3.72513 30.9331 3.72513C28.6878 3.72513 26.8811 5.42044 24.8505 8.44323C23.771 10.0492 22.6627 12.0064 21.4184 14.2148L20.0485 16.6443C17.2968 21.5289 16.5998 22.6414 15.2239 24.4775C12.8123 27.6925 10.753 28.911 8.04209 28.911C4.82616 28.911 2.79258 27.5169 1.53312 25.416C0.504993 23.704 0 21.4577 0 18.8981L4.69613 19.0661Z" fill="#0081FB"/>
<path id="Vector_2" d="M3.70277 5.64597C5.8558 2.32348 8.96287 0 12.5265 0C14.5904 0 16.6421 0.611521 18.7845 2.36283C21.1281 4.27762 23.6258 7.43058 26.7419 12.627L27.8593 14.4918C30.5566 18.9904 32.0912 21.3048 32.9893 22.3962C34.1445 23.7979 34.9534 24.2156 36.0042 24.2156C38.6698 24.2156 39.335 21.7635 39.335 18.9571L43.4778 18.827C43.4778 21.7605 42.9002 23.9159 41.9174 25.6188C40.9679 27.2657 39.1173 28.911 36.0042 28.911C34.0689 28.911 32.3543 28.4902 30.4583 26.6995C29.0008 25.3251 27.2968 22.8836 25.986 20.6888L22.0866 14.1679C20.1302 10.8954 18.3355 8.45534 17.2968 7.35036C16.1794 6.16213 14.7431 4.72718 12.4509 4.72718C10.5958 4.72718 9.02032 6.03044 7.7019 8.02394L3.70277 5.64597Z" fill="url(#paint0_linear_69_448)"/>
<path id="Vector_3" d="M12.451 4.72718C10.5958 4.72718 9.02032 6.03044 7.7019 8.02394C5.83766 10.8409 4.69613 15.0368 4.69613 19.0661C4.69613 20.7281 5.06051 22.0042 5.53678 22.7761L1.53312 25.416C0.504993 23.704 0 21.4577 0 18.8981C0 14.2436 1.27609 9.39229 3.70278 5.64597C5.8558 2.32348 8.96287 0 12.5265 0L12.451 4.72718Z" fill="url(#paint1_linear_69_448)"/>
<path id="Vector_4" d="M52.6069 0.914062H58.0394L67.2759 17.6431L76.514 0.914062H81.8285V28.4022H77.397V7.33503L69.2959 21.9237H65.138L57.0385 7.33503V28.4022H52.6069V0.914062ZM95.7143 11.1631C92.5362 11.1631 90.622 13.5577 90.1639 16.523H100.95C100.728 13.4684 98.968 11.1631 95.7143 11.1631ZM85.7702 18.2122C85.7702 11.9729 89.798 7.43191 95.7914 7.43191C101.687 7.43191 105.206 11.9154 105.206 18.5452V19.7637H90.1639C90.6976 22.9894 92.8355 25.163 96.2828 25.163C99.033 25.163 100.752 24.3229 102.382 22.7865L104.736 25.6731C102.518 27.715 99.6968 28.8927 96.1256 28.8927C89.6378 28.8927 85.7702 24.1564 85.7702 18.2122ZM110.58 11.5566H106.501V7.92385H110.58V1.91611H114.856V7.92385H121.053V11.5566H114.856V20.7643C114.856 23.9082 115.86 25.0252 118.327 25.0252C119.454 25.0252 120.099 24.9284 121.053 24.7694V28.3629C119.865 28.6989 118.731 28.8533 117.503 28.8533C112.887 28.8533 110.58 26.3285 110.58 21.2744V11.5566ZM139.058 15.0895C138.199 12.9189 136.283 11.3205 133.468 11.3205C129.809 11.3205 127.467 13.9195 127.467 18.1532C127.467 22.281 129.623 25.0056 133.292 25.0056C136.177 25.0056 138.237 23.3254 139.058 21.235V15.0895ZM143.333 28.4022H139.136V25.5353C137.963 27.2231 135.828 28.8927 132.37 28.8927C126.809 28.8927 123.093 24.2321 123.093 18.1532C123.093 12.0168 126.898 7.43191 132.606 7.43191C135.427 7.43191 137.641 8.5611 139.136 10.5546V7.92385H143.333V28.4022Z" fill="#192830"/>
</g>
</g>
<defs>
<linearGradient id="paint0_linear_69_448" x1="9.22292" y1="17.7099" x2="39.1598" y2="19.2201" gradientUnits="userSpaceOnUse">
<stop stop-color="#0064E1"/>
<stop offset="0.4" stop-color="#0064E1"/>
<stop offset="0.83" stop-color="#0073EE"/>
<stop offset="1" stop-color="#0082FB"/>
</linearGradient>
<linearGradient id="paint1_linear_69_448" x1="6.8038" y1="21.04" x2="6.8038" y2="9.99019" gradientUnits="userSpaceOnUse">
<stop stop-color="#0082FB"/>
<stop offset="1" stop-color="#0064E0"/>
</linearGradient>
</defs>
</svg>
