<svg width="45" height="39" viewBox="0 0 45 39" fill="none" xmlns="http://www.w3.org/2000/svg">
<path id="&#226;&#128;&#156;" d="M17.9167 0.709096C14.8611 3.54546 12.5 6.71273 10.8333 10.2109C9.16667 13.7091 8.33333 16.9236 8.33333 19.8545C9.07407 19.4764 10.0926 19.2873 11.3889 19.2873C13.8889 19.2873 15.9722 20.1854 17.6389 21.9818C19.3056 23.7782 20.1389 26.0473 20.1389 28.7891C20.1389 31.8145 19.1667 34.2727 17.2222 36.1636C15.3704 38.0545 13.0093 39 10.1389 39C6.99074 39 4.49074 38.0073 2.63889 36.0218C0.879629 34.0364 0 31.5309 0 28.5054C0 22.5491 1.06481 17.16 3.19444 12.3382C5.41667 7.51636 8.33333 3.73454 11.9444 0.992723C12.6852 0.330908 13.7963 0 15.2778 0C16.4815 0 17.3611 0.236369 17.9167 0.709096ZM42.7778 0.709096C39.7222 3.54546 37.3611 6.71273 35.6944 10.2109C34.0278 13.7091 33.1944 16.9236 33.1944 19.8545C33.9352 19.4764 34.9537 19.2873 36.25 19.2873C38.75 19.2873 40.8333 20.1854 42.5 21.9818C44.1667 23.7782 45 26.0473 45 28.7891C45 31.8145 44.0278 34.2727 42.0833 36.1636C40.2315 38.0545 37.8704 39 35 39C31.8518 39 29.3519 38.0073 27.5 36.0218C25.7407 34.0364 24.8611 31.5309 24.8611 28.5054C24.8611 22.5491 25.9259 17.16 28.0556 12.3382C30.2778 7.51636 33.1944 3.73454 36.8056 0.992723C37.5463 0.330908 38.6574 0 40.1389 0C41.3426 0 42.2222 0.236369 42.7778 0.709096Z" fill="#066668"/>
</svg>
