<svg width="118" height="26" viewBox="0 0 118 26" fill="none" xmlns="http://www.w3.org/2000/svg">
<g id="183287 1" clip-path="url(#clip0_69_242)">
<g id="surface1">
<path id="Vector" d="M5.30085 3.2829L10.8715 19.8304L16.4587 3.165C16.7496 2.28987 16.9666 1.68075 17.1128 1.33916C17.2575 0.996055 17.4987 0.687716 17.8333 0.412629C18.1694 0.137543 18.6291 0 19.2094 0C19.6359 0 20.0293 0.107314 20.3925 0.32043C20.7558 0.533547 21.0406 0.81619 21.2486 1.17138C21.4551 1.52507 21.5591 1.88026 21.5591 2.23999C21.5591 2.48787 21.5244 2.75389 21.4581 3.04106C21.3918 3.32673 21.3074 3.60786 21.2064 3.88295C21.1054 4.15804 21.006 4.44219 20.905 4.7339L14.9485 20.8718C14.736 21.49 14.5235 22.0764 14.3109 22.6311C14.0984 23.1874 13.8527 23.6756 13.5724 24.0973C13.2936 24.519 12.9213 24.8651 12.4571 25.1341C11.9929 25.4017 11.4246 25.5377 10.7539 25.5377C10.0832 25.5377 9.515 25.4047 9.05229 25.1417C8.58807 24.8772 8.21127 24.5295 7.92641 24.0973C7.64154 23.665 7.39285 23.1738 7.18034 22.6236C6.96782 22.0734 6.75681 21.49 6.5443 20.8718L0.687287 4.86842C0.586304 4.57671 0.482306 4.29105 0.376802 4.0084C0.271297 3.72878 0.180865 3.42498 0.108519 3.10001C0.036173 2.77354 0 2.49996 0 2.27475C0 1.70191 0.229096 1.17894 0.687287 0.707365C1.14548 0.235788 1.72274 0 2.41605 0C3.26612 0 3.8675 0.261483 4.21867 0.782938C4.57136 1.30439 4.93158 2.13872 5.30085 3.2829Z" fill="#262226"/>
<path id="Vector_2" d="M25.5321 22.4876V3.032C25.5321 2.02083 25.7612 1.26358 26.2179 0.758755C26.6746 0.253926 27.2654 0 27.9904 0C28.7379 0 29.3423 0.250903 29.805 0.749686C30.2693 1.24998 30.4999 2.01025 30.4999 3.032V22.4876C30.4999 23.5108 30.2693 24.2756 29.805 24.7804C29.3423 25.2838 28.7379 25.5377 27.9904 25.5377C27.2775 25.5377 26.6881 25.2823 26.2254 24.7714C25.7642 24.2605 25.5321 23.4987 25.5321 22.4876Z" fill="#262226"/>
<path id="Vector_3" d="M54.8006 17.6962C54.8006 19.1911 54.4162 20.5363 53.6476 21.7258C52.8789 22.9183 51.7545 23.8524 50.2729 24.5265C48.7928 25.1991 47.0369 25.5377 45.0067 25.5377C42.5726 25.5377 40.5635 25.0767 38.9824 24.1547C37.8701 23.4912 36.9673 22.607 36.2725 21.4991C35.5776 20.3927 35.231 19.315 35.231 18.2706C35.231 17.663 35.439 17.143 35.8565 16.7092C36.2725 16.2785 36.803 16.0608 37.4481 16.0608C37.9711 16.0608 38.4127 16.2301 38.7744 16.5672C39.1347 16.9042 39.4436 17.4045 39.6999 18.068C40.0134 18.854 40.354 19.5115 40.7187 20.0405C41.0835 20.5695 41.5989 21.0048 42.2621 21.3479C42.9253 21.691 43.7949 21.8618 44.8741 21.8618C46.3572 21.8618 47.563 21.5157 48.4899 20.8249C49.4168 20.1327 49.881 19.2696 49.881 18.2358C49.881 17.4151 49.6309 16.7485 49.1305 16.2377C48.6301 15.7268 47.9835 15.3368 47.1907 15.0663C46.3979 14.7957 45.3368 14.5085 44.0105 14.2062C42.2455 13.7906 40.7685 13.3054 39.5793 12.7507C38.3901 12.1945 37.4451 11.4372 36.7472 10.4775C36.0494 9.51769 35.7012 8.32665 35.7012 6.90134C35.7012 5.54405 36.0705 4.3379 36.809 3.28139C37.5476 2.2279 38.6177 1.41624 40.0179 0.850954C41.4181 0.282644 43.0639 0 44.957 0C46.4687 0 47.7755 0.187421 48.8788 0.563776C49.982 0.938619 50.8984 1.4374 51.6264 2.06013C52.3544 2.68134 52.8849 3.33429 53.221 4.01747C53.5571 4.70216 53.7259 5.36721 53.7259 6.01714C53.7259 6.61265 53.5149 7.1462 53.0959 7.62382C52.6754 8.09842 52.1524 8.33723 51.5254 8.33723C50.9542 8.33723 50.5201 8.19667 50.2232 7.91553C49.9263 7.63289 49.6037 7.17038 49.2571 6.52952C48.8064 5.58788 48.2668 4.8518 47.6368 4.32279C47.0068 3.79528 45.9955 3.53078 44.6013 3.53078C43.3081 3.53078 42.2651 3.81493 41.4723 4.38324C40.6795 4.95004 40.2831 5.63322 40.2831 6.43128C40.2831 6.92704 40.4173 7.35327 40.6871 7.713C40.9569 8.07273 41.3276 8.38258 41.8009 8.64104C42.2727 8.8995 42.7504 9.10203 43.2343 9.24865C43.7181 9.39526 44.5154 9.60837 45.6292 9.88799C47.0204 10.216 48.2804 10.5757 49.4078 10.9672C50.5352 11.3617 51.4938 11.8393 52.285 12.4016C53.0748 12.9638 53.6928 13.6742 54.1359 14.5342C54.579 15.3943 54.8006 16.4493 54.8006 17.6962Z" fill="#262226"/>
<path id="Vector_4" d="M59.2212 22.4876V3.032C59.2212 2.02083 59.4503 1.26358 59.907 0.758755C60.3637 0.253926 60.956 0 61.681 0C62.4271 0 63.033 0.250903 63.4957 0.749686C63.9584 1.24998 64.189 2.01025 64.189 3.032V22.4876C64.189 23.5108 63.9584 24.2756 63.4957 24.7804C63.033 25.2838 62.4271 25.5377 61.681 25.5377C60.9666 25.5377 60.3788 25.2823 59.916 24.7714C59.4533 24.2605 59.2212 23.4987 59.2212 22.4876Z" fill="#262226"/>
<g id="Clip path group">
<mask id="mask0_69_242" style="mask-type:luminance" maskUnits="userSpaceOnUse" x="96" y="0" width="22" height="26">
<g id="clip1">
<path id="Vector_5" d="M96.8471 0H117.656V25.5377H96.8471V0Z" fill="white"/>
</g>
</mask>
<g mask="url(#mask0_69_242)">
<g id="Group">
<path id="Vector_6" d="M103.501 3.00025L113.075 17.5572V2.86422C113.075 1.90898 113.28 1.19406 113.689 0.716434C114.097 0.238811 114.647 0 115.342 0C116.058 0 116.622 0.238811 117.036 0.716434C117.451 1.19406 117.657 1.90898 117.657 2.86422V22.2865C117.657 24.454 116.762 25.5377 114.973 25.5377C114.525 25.5377 114.123 25.4727 113.764 25.3442C113.407 25.2142 113.071 25.0087 112.757 24.7275C112.444 24.4464 112.153 24.1184 111.885 23.7406C111.616 23.3642 111.348 22.9788 111.08 22.5843L101.741 8.174V22.6689C101.741 23.6151 101.523 24.3285 101.085 24.8122C100.647 25.2959 100.086 25.5377 99.4019 25.5377C98.695 25.5377 98.1283 25.2928 97.7017 24.8046C97.2752 24.3164 97.0627 23.6075 97.0627 22.675V3.62147C97.0627 2.81435 97.1531 2.17953 97.3325 1.71853C97.545 1.21371 97.8977 0.801076 98.3905 0.480646C98.8834 0.160215 99.4169 0 99.9882 0C100.436 0 100.82 0.0740616 101.14 0.219162C101.459 0.365774 101.74 0.562264 101.981 0.810144C102.222 1.05651 102.468 1.37543 102.721 1.76992C102.972 2.1629 103.233 2.57251 103.501 3.00025Z" fill="#262226"/>
</g>
</g>
</g>
<path id="Vector_7" d="M85.7797 16.4915C86.5318 15.4274 86.9795 14.1291 86.9795 12.7249C86.9795 9.12161 84.066 6.19995 80.4728 6.19995C77.7147 6.19995 75.3634 7.92453 74.4154 10.3535C75.4704 9.83502 76.6521 9.53575 77.9061 9.53575C81.9514 9.53575 85.2823 12.5693 85.7797 16.4915Z" fill="#6B615D"/>
<path id="Vector_8" d="M80.4728 19.2501C82.6658 19.2501 84.6011 18.1588 85.7797 16.4916C85.2823 12.5694 81.9514 9.53589 77.9061 9.53589C76.6521 9.53589 75.4704 9.83516 74.4154 10.3536C74.129 11.0897 73.9662 11.8877 73.9662 12.7251C73.9662 16.3284 76.8796 19.2501 80.4728 19.2501Z" fill="#262226"/>
<path id="Vector_9" d="M84.7382 17.6495C84.7382 17.6495 82.3523 23.121 78.4351 24.8788L78.4667 24.8864C79.1194 24.9937 79.7901 25.0496 80.4728 25.0496C83.121 25.0496 85.5747 24.2092 87.5808 22.7809L87.6019 22.7643C89.1317 18.7438 86.9614 13.1831 86.9614 13.1831L86.9584 13.2375C86.8242 14.9817 86.0043 16.5355 84.7684 17.6253L84.7382 17.6495Z" fill="#F69679"/>
<path id="Vector_10" d="M86.9614 13.1829C86.9614 13.1829 89.1318 18.7421 87.6019 22.7641L87.6291 22.7475C88.1671 22.3605 88.6796 21.9237 89.1634 21.4401C91.0354 19.5613 92.1778 17.2276 92.5893 14.7941L92.5923 14.7685C90.8394 10.8402 85.3833 8.44751 85.3833 8.44751L85.4195 8.48681C86.5559 9.8169 87.0699 11.4961 86.9659 13.1436L86.9614 13.1829Z" fill="#F9B49B"/>
<path id="Vector_11" d="M85.3833 8.44761C85.3833 8.44761 90.8394 10.8387 92.5923 14.7685L92.5998 14.7368C92.7068 14.0823 92.7626 13.4097 92.7626 12.725C92.7626 10.0694 91.9246 7.60875 90.4988 5.59699L90.4837 5.57583C86.473 4.04018 80.928 6.21669 80.928 6.21669L80.9823 6.22122C82.7231 6.35574 84.271 7.17798 85.3592 8.41738L85.3833 8.44761Z" fill="#B11116"/>
<path id="Vector_12" d="M80.928 6.21812C80.928 6.21812 86.473 4.0401 90.4837 5.57574L90.4656 5.54854C90.0798 5.00895 89.6457 4.49505 89.1634 4.00987C87.2899 2.13263 84.9628 0.986941 82.5362 0.574312L82.5106 0.571289C78.5918 2.32912 76.2059 7.79911 76.2059 7.79911L76.2466 7.76434C77.573 6.6247 79.2475 6.10778 80.8903 6.21358L80.928 6.21812Z" fill="#C4151C"/>
<path id="Vector_13" d="M76.2059 7.80076C76.2059 7.80076 78.5919 2.32926 82.5106 0.57143L82.4774 0.563873C81.8248 0.456559 81.1556 0.400635 80.4728 0.400635C77.8232 0.400635 75.3694 1.24101 73.3633 2.67085L73.3438 2.68597C71.8124 6.70797 73.9828 12.2686 73.9828 12.2686L73.9858 12.2142C74.1215 10.4685 74.9414 8.91471 76.1758 7.82494L76.2059 7.80076Z" fill="#D71920"/>
<path id="Vector_14" d="M73.9828 12.2685C73.9828 12.2685 71.8124 6.7078 73.3437 2.68579L73.3151 2.70393C72.7785 3.09086 72.2646 3.52616 71.7823 4.00983C69.9088 5.88858 68.7663 8.22228 68.3564 10.6557L68.3519 10.6814C70.1063 14.6112 75.5608 17.0039 75.5608 17.0039L75.5247 16.9631C74.3897 15.633 73.8743 13.9538 73.9798 12.3063L73.9828 12.2685Z" fill="#ED1C24"/>
<path id="Vector_15" d="M75.5609 17.0038C75.5609 17.0038 70.1063 14.6112 68.3519 10.6814L68.3459 10.7146C68.2388 11.3676 68.1831 12.0402 68.1831 12.7249C68.1831 15.382 69.0211 17.8412 70.4454 19.8545L70.4605 19.8741C74.4711 21.4098 80.0162 19.2333 80.0162 19.2333L79.9619 19.2302C78.2211 19.0942 76.6732 18.272 75.5865 17.0341L75.5609 17.0038Z" fill="#F26649"/>
<path id="Vector_16" d="M80.0162 19.2334C80.0162 19.2334 74.4727 21.4099 70.462 19.8742L70.4786 19.903C70.8644 20.441 71.2985 20.9549 71.7823 21.4401C73.6557 23.3189 75.9829 24.4646 78.4095 24.8757L78.4336 24.8802C82.3523 23.1209 84.7382 17.6509 84.7382 17.6509L84.6976 17.6872C83.3727 18.8253 81.6982 19.3422 80.0554 19.2364L80.0162 19.2334Z" fill="#F47A5C"/>
<path id="Vector_17" d="M84.6945 9.44812C84.6945 10.1751 84.1067 10.7661 83.3818 10.7661C82.6553 10.7661 82.0675 10.1751 82.0675 9.44812C82.0675 8.7196 82.6553 8.13013 83.3818 8.13013C84.1067 8.13013 84.6945 8.7196 84.6945 9.44812Z" fill="white"/>
</g>
</g>
<defs>
<clipPath id="clip0_69_242">
<rect width="117.656" height="25.5377" fill="white"/>
</clipPath>
</defs>
</svg>
