<svg width="106" height="50" viewBox="0 0 106 50" fill="none" xmlns="http://www.w3.org/2000/svg">
<g id="Group 22">
<g id="Group 25">
<path id="Vector" d="M49.0926 1.65024C50.0615 0.753655 51.2906 0.0161397 52.65 0.00167859C53.5755 -0.0272435 54.4721 0.319822 55.2096 0.869342C55.8459 1.34656 56.4099 1.925 56.8582 2.57575C58.0584 4.44123 59.2298 6.33563 60.4011 8.21556C59.8082 9.19892 59.2732 10.2401 58.4633 11.0644C59.0562 12.5394 59.9239 13.8843 61.0229 15.0267C62.4257 16.5162 64.2911 17.6153 66.3302 17.9189C67.2846 19.4952 68.239 21.057 69.1934 22.6332C68.2969 24.0938 67.3569 25.5544 66.2289 26.8559C65.3468 27.8103 64.2911 28.6346 63.0764 29.0973C62.0641 29.5023 60.8928 29.2564 59.9673 28.7503C58.6513 28.0128 57.6824 26.7836 56.9015 25.511C56.4822 24.8603 56.1785 24.1372 55.7591 23.4864C54.6601 21.5776 53.6767 19.5964 52.5632 17.6876C52.1149 16.9356 51.6811 16.1836 51.1027 15.5184C50.9436 15.3593 50.7411 15.099 50.4953 15.2581C49.4252 15.7209 48.2683 15.9812 47.0969 16.0245C45.7954 16.0679 44.4939 15.7209 43.4094 14.9978C42.4405 14.3615 41.703 13.436 41.139 12.4237C43.2214 9.56044 45.3038 6.69715 47.3717 3.8194C47.9068 3.06743 48.3984 2.27207 49.0926 1.65024Z" fill="#B51118"/>
<path id="Vector_2" d="M67.2556 1.43313C68.2389 0.869152 69.3524 0.536547 70.4949 0.493164C74.2547 0.493164 78.0291 0.493164 81.7889 0.493164C80.8779 1.63559 80.1548 2.93708 79.3595 4.16627C78.1881 6.06067 77.0457 7.98399 75.9033 9.89285C75.1079 11.2233 74.2692 12.5392 73.2714 13.7106C72.3025 14.853 71.1311 15.8797 69.7284 16.4437C68.5282 16.9065 67.2267 16.9788 65.983 16.6751C64.5514 16.3425 63.2499 15.5616 62.1942 14.5638C61.2832 13.6817 60.5167 12.6549 59.9238 11.527C59.866 11.4402 59.8371 11.3534 59.8226 11.2522C60.777 9.92178 61.5579 8.47567 62.3677 7.05849C62.8305 6.26313 63.2209 5.40992 63.7705 4.65795C64.696 3.35645 65.8529 2.21403 67.2556 1.43313ZM23.7712 1.31744C27.3575 1.30298 30.9438 1.3319 34.5447 1.30298C35.8606 1.37529 37.0609 2.09834 37.9141 3.06723C38.5504 3.76136 38.9987 4.58564 39.4903 5.381C40.2857 6.71142 41.1244 8.02738 41.9632 9.32887C41.2257 10.3267 40.5026 11.3245 39.794 12.3368C40.3291 13.3201 40.9075 14.3035 41.7318 15.0699C43.1201 16.4582 45.1157 17.1668 47.0679 17.1234C48.2248 18.9166 49.3817 20.6953 50.5531 22.4884C50.7266 22.7487 50.4229 22.9512 50.2927 23.1536C49.2226 24.6865 48.3984 26.3929 47.0824 27.7378C46.2581 28.4609 45.188 28.967 44.0745 28.9959C43.3948 28.9525 42.7152 28.7935 42.0933 28.5042C41.1534 28.027 40.4158 27.2317 39.7506 26.4218C38.6661 25.077 37.7695 23.5875 36.9307 22.0691C36.2221 20.7242 35.3545 19.4661 34.5591 18.1646C31.0162 12.5103 27.4153 6.89941 23.7712 1.31744ZM0.344238 33.233C2.19525 33.233 4.06073 33.233 5.91175 33.233C6.79387 36.1975 7.64708 39.162 8.54366 42.1266C9.25225 39.4802 9.93192 36.8338 10.6405 34.173C10.7851 33.6379 11.2623 33.2475 11.8263 33.233C12.7663 33.233 13.7207 33.233 14.6607 33.233C15.2102 33.233 15.6874 33.5945 15.8465 34.1296C16.5551 36.776 17.2348 39.4368 17.9434 42.0832C18.811 39.1331 19.6208 36.1686 20.474 33.2185H26.1139C24.5376 38.4824 22.9324 43.7462 21.3272 49.01C21.1971 49.5596 20.7054 49.9645 20.1414 49.9789C18.9556 49.9789 17.7843 49.9789 16.5985 49.9789C16.02 49.9645 15.5139 49.574 15.3548 49.01C14.7475 47.1446 14.1401 45.2935 13.5472 43.4281C13.4604 43.1244 13.3592 42.8207 13.229 42.5315C12.5783 44.5416 11.9275 46.5516 11.2768 48.5617C11.1611 48.8943 11.0888 49.2559 10.8574 49.5306C10.5971 49.8343 10.2211 50.0078 9.8307 49.9934C8.67381 49.9934 7.51693 49.9934 6.3745 49.9934C5.82498 49.9789 5.34776 49.6174 5.18869 49.0823L0.344238 33.233ZM27.6467 34.1874C27.8058 33.6235 28.3119 33.2475 28.8904 33.2475C31.1029 33.2475 33.3155 33.2475 35.5135 33.2475C35.9329 33.2475 36.3089 33.4499 36.5403 33.7825C36.7572 34.0862 36.815 34.4622 36.9307 34.8093C38.4781 39.8706 40.0109 44.9465 41.5583 49.9934C39.6639 49.9934 37.755 50.0078 35.8606 49.9934C35.5425 48.7642 35.1809 47.5495 34.8339 46.3347C33.0696 46.3492 31.3054 46.3492 29.5411 46.3347C29.1941 47.5495 28.847 48.7642 28.5144 49.9934C26.62 50.0078 24.7256 49.9934 22.8312 49.9934C24.4364 44.7296 26.0271 39.4513 27.6467 34.1874ZM30.5245 42.8641H33.8361C33.2865 40.854 32.7081 38.8584 32.202 36.8338C31.6091 38.8294 31.1029 40.854 30.5245 42.8641ZM43.1201 33.1896H48.7888C48.7888 37.2387 48.7888 41.2878 48.7888 45.3225H54.4286V49.9789C50.9435 49.9789 47.4584 49.9789 43.9733 49.9789C43.5105 49.9789 43.1201 49.6029 43.1201 49.1402C43.1201 49.1257 43.1201 49.1257 43.1201 49.1113C43.1201 43.8185 43.1201 38.5113 43.1201 33.1896ZM51.3339 33.233C56.4821 33.233 61.6447 33.233 66.7928 33.233C66.7928 34.7948 66.7928 36.3421 66.7928 37.9039C65.1587 37.9039 63.5246 37.9039 61.905 37.9039C61.905 41.9386 61.905 45.9587 61.905 49.9934C60.0106 49.9934 58.1162 49.9934 56.2218 49.9934C56.2218 45.9587 56.2218 41.9241 56.2218 37.9039C54.5877 37.9039 52.968 37.9039 51.3339 37.9039C51.3339 36.3421 51.3339 34.7803 51.3339 33.233ZM73.7775 33.233C76.0045 33.2185 78.246 33.2185 80.473 33.233C81.8612 33.2619 83.3797 33.5656 84.3919 34.5924C85.3753 35.5902 85.679 37.0507 85.7224 38.3956C85.7368 40.0586 85.7224 41.7217 85.7224 43.3847C85.7368 44.7729 85.7657 46.248 85.1439 47.535C84.6812 48.5184 83.8424 49.2703 82.8012 49.6029C81.6009 50.0512 80.2994 49.9934 79.0413 49.9934C77.2771 49.9934 75.4984 50.0078 73.7341 49.9934C72.3459 49.9645 70.8564 49.6174 69.8586 48.5907C68.8463 47.5061 68.586 45.9587 68.5715 44.5271C68.5715 43.0521 68.5715 41.5915 68.5715 40.1165C68.5715 38.9596 68.5137 37.7882 68.8029 36.6603C69.0343 35.6914 69.5549 34.7803 70.3792 34.2019C71.3625 33.4933 72.5917 33.2764 73.7775 33.233ZM75.1947 38.4968C74.3993 38.7427 73.8354 39.4513 73.792 40.29C73.792 41.1432 73.792 41.9964 73.792 42.8641C73.792 43.6594 74.2547 44.3825 74.9922 44.6862C75.455 44.9031 75.9756 44.8308 76.4673 44.8452C77.2048 44.8452 77.9278 44.8597 78.6654 44.8452C79.6632 44.7729 80.4441 43.9631 80.4874 42.9653C80.4874 42.0832 80.4874 41.2011 80.4874 40.3045C80.4296 39.3211 79.6632 38.5258 78.6798 38.439C77.9423 38.4101 77.2048 38.439 76.4673 38.4245C76.0624 38.4245 75.6285 38.3667 75.1947 38.4968ZM87.5444 34.1874C87.5155 33.6958 87.8915 33.2764 88.3687 33.2475C88.3832 33.2475 88.3977 33.2475 88.4121 33.2475C89.6413 33.233 90.8849 33.2475 92.1286 33.2475C92.8806 33.2185 93.5747 33.6813 94.0375 34.2453C95.8596 36.4867 97.6961 38.7282 99.5182 40.9552C99.5327 38.3811 99.5182 35.8215 99.5182 33.2475C101.413 33.2475 103.307 33.2475 105.201 33.2475C105.201 38.5402 105.201 43.833 105.201 49.1257C105.201 49.6029 104.825 49.9934 104.348 49.9934H104.334C103.105 50.0078 101.861 49.9934 100.617 49.9934C99.8797 50.0223 99.2001 49.5885 98.7518 49.0389C96.9152 46.7975 95.0787 44.5416 93.2421 42.3001C93.2421 44.8597 93.2421 47.4338 93.2421 49.9934C91.3477 49.9934 89.4678 49.9934 87.5734 49.9934C87.5589 44.7296 87.5589 39.4513 87.5444 34.1874Z" fill="#21409A"/>
</g>
</g>
</svg>
